<svg xmlns="http://www.w3.org/2000/svg" width="18.1" height="18.1" viewBox="0 0 18.1 18.1">
  <g id="analitics_" data-name="analitics " transform="translate(-8.9 -5.67)">
    <rect id="Rectangle_182" data-name="Rectangle 182" width="18" height="18" transform="translate(9 5.67)" fill="none"/>
    <g id="Group" transform="translate(9 6)" style="isolation: isolate">
      <path id="Vector" d="M.589,0H0V17.67H17.67v-.589H.589Z" stroke="#000" stroke-width="0.2" style="isolation: isolate"/>
      <path id="Vector-2" data-name="Vector" d="M.982,0V4.712H0V0Z" transform="translate(2.356 11.584)" stroke="#000" stroke-width="0.2" style="isolation: isolate"/>
      <path id="Vector-3" data-name="Vector" d="M.982,0V6.283H0V0Z" transform="translate(4.319 10.013)" stroke="#000" stroke-width="0.2" style="isolation: isolate"/>
      <path id="Vector-4" data-name="Vector" d="M.982,0V11.387H0V0Z" transform="translate(6.283 4.908)" stroke="#000" stroke-width="0.2" style="isolation: isolate"/>
      <path id="Vector-5" data-name="Vector" d="M.982,0V7.657H0V0Z" transform="translate(8.246 8.639)" stroke="#000" stroke-width="0.2" style="isolation: isolate"/>
      <path id="Vector-6" data-name="Vector" d="M.982,0V2.749H0V0Z" transform="translate(10.209 13.547)" stroke="#000" stroke-width="0.2" style="isolation: isolate"/>
      <path id="Vector-7" data-name="Vector" d="M.982,0V1.767H0V0Z" transform="translate(11.976 14.529)" stroke="#000" stroke-width="0.2" style="isolation: isolate"/>
      <path id="Vector-8" data-name="Vector" d="M.982,0V.982H0V0Z" transform="translate(13.94 15.314)" stroke="#000" stroke-width="0.2" style="isolation: isolate"/>
    </g>
  </g>
</svg>
