<svg xmlns="http://www.w3.org/2000/svg" width="18" height="18" viewBox="0 0 18 18">
  <g id="bag" transform="translate(1.256 1.309)" style="isolation: isolate">
    <rect id="Rectangle_188" data-name="Rectangle 188" width="18" height="18" transform="translate(-1.256 -1.309)" fill="#fff"/>
    <path id="Path_33955" d="M3.971,11.984c-2.5,0-4.423-.9-3.878-4.543L.728,2.51C1.065.695,2.223,0,3.239,0h8.308c1.031,0,2.122.747,2.511,2.51l.635,4.931c.463,3.228-1.4,4.543-3.908,4.543Z" transform="translate(0.309 3.706)" fill="none" stroke="#000" stroke-linecap="round" stroke-linejoin="round" stroke-width="1.5" style="isolation: isolate"/>
    <path id="Path_33956" d="M7.068,3.527A3.534,3.534,0,0,0,0,3.527H0" transform="translate(4.138 0)" fill="none" stroke="#000" stroke-linecap="round" stroke-linejoin="round" stroke-width="1.5" style="isolation: isolate"/>
    <path id="Line_192" d="M.4.381H.362" transform="translate(9.701 6.822)" fill="none" stroke="#000" stroke-linecap="round" stroke-linejoin="round" stroke-width="1.5" style="isolation: isolate"/>
    <path id="Line_193" d="M.4.381H.362" transform="translate(4.941 6.822)" fill="none" stroke="#000" stroke-linecap="round" stroke-linejoin="round" stroke-width="1.5" style="isolation: isolate"/>
  </g>
</svg>
