<svg xmlns="http://www.w3.org/2000/svg" width="18" height="18" viewBox="0 0 18 18">
  <g id="bank" transform="translate(-1.484 -0.75)">
    <rect id="Rectangle_561" data-name="Rectangle 561" width="18" height="18" transform="translate(1.484 0.75)" fill="none"/>
    <g id="Group_639" data-name="Group 639" transform="translate(0.5 0.691)">
      <path id="Path_1000" data-name="Path 1000" d="M16.916,9.626H3.119a2.085,2.085,0,0,1-1.482-.633,2.148,2.148,0,0,1-.606-1.5v-.37a2.183,2.183,0,0,1,.245-1,2.13,2.13,0,0,1,.68-.77L8.876.6l0,0a2.06,2.06,0,0,1,2.3,0l6.874,4.523a2.116,2.116,0,0,1,.7.773,2.171,2.171,0,0,1,.253,1.019v.578a2.169,2.169,0,0,1-.16.816A2.129,2.129,0,0,1,18.393,9a2.078,2.078,0,0,1-.682.464A2.043,2.043,0,0,1,16.916,9.626ZM9.409,1.386,2.492,6.128a1.179,1.179,0,0,0-.376.426,1.231,1.231,0,0,0-.138.565v.369a1.222,1.222,0,0,0,.339.845,1.117,1.117,0,0,0,.8.345h13.8a1.1,1.1,0,0,0,.428-.087,1.136,1.136,0,0,0,.373-.254,1.187,1.187,0,0,0,.253-.386,1.224,1.224,0,0,0,.091-.46V6.914a1.221,1.221,0,0,0-.142-.573,1.167,1.167,0,0,0-.387-.427L10.654,1.389a1.113,1.113,0,0,0-1.244,0Z" transform="translate(-0.024)" fill="#231f20"/>
      <path id="Path_1001" data-name="Path 1001" d="M18.5,35.462H1.458a.474.474,0,1,1,0-.947H18.5a.474.474,0,1,1,0,.947Z" transform="translate(0 -17.596)" fill="#231f20"/>
      <path id="Path_1002" data-name="Path 1002" d="M18.5,29.643H1.458a.474.474,0,0,1,0-.947H18.5a.474.474,0,0,1,0,.947Z" transform="translate(0 -14.695)" fill="#231f20"/>
      <path id="Path_1003" data-name="Path 1003" d="M7.776,23.64H6.828V18.05h.947Z" transform="translate(-2.913 -9.036)" fill="#231f20"/>
      <path id="Path_1004" data-name="Path 1004" d="M15.557,23.64h-.947V18.05h.947Z" transform="translate(-6.997 -9.036)" fill="#231f20"/>
      <path id="Path_1005" data-name="Path 1005" d="M23.338,23.64h-.947V18.05h.947Z" transform="translate(-10.992 -9.036)" fill="#231f20"/>
      <path id="Path_1006" data-name="Path 1006" d="M31.119,23.64h-.947V18.05h.947Z" transform="translate(-15.078 -9.036)" fill="#231f20"/>
      <path id="Path_1007" data-name="Path 1007" d="M17.5,10.669a1.953,1.953,0,1,1,1.957-1.953A1.957,1.957,0,0,1,17.5,10.669Zm0-2.958a1.005,1.005,0,1,0,1.01,1.005A1.009,1.009,0,0,0,17.5,7.711Z" transform="translate(-7.519 -3.366)" fill="#231f20"/>
    </g>
  </g>
</svg>
