<svg xmlns="http://www.w3.org/2000/svg" width="18" height="18" viewBox="0 0 18 18">
  <g id="bell" transform="translate(-90 -63)">
    <rect id="Rectangle_547" data-name="Rectangle 547" width="18" height="18" transform="translate(90 63)" fill="none"/>
    <path id="Path_126" data-name="Path 126" d="M251.594,3965.557H251.1V3958.6a5.726,5.726,0,0,0-4.91-5.667v-.8a.818.818,0,0,0-1.637,0v.8a5.726,5.726,0,0,0-4.91,5.667v6.956h-.491a.656.656,0,0,0-.655.657v.652a.163.163,0,0,0,.163.163h4.419a2.291,2.291,0,1,0,4.583,0h4.419a.163.163,0,0,0,.163-.163v-.652A.656.656,0,0,0,251.594,3965.557Zm-6.219,2.454a.981.981,0,0,1-.982-.983h1.964A.981.981,0,0,1,245.374,3968.012Zm-4.255-2.454V3958.6a4.255,4.255,0,1,1,8.511,0v6.956Z" transform="translate(-146.5 -3888.32)" fill="rgba(0,0,0,0.85)"/>
  </g>
</svg>
