<svg xmlns="http://www.w3.org/2000/svg" width="18" height="18" viewBox="0 0 18 18">
  <g id="calender" transform="translate(1.256 0.309)" style="isolation: isolate">
    <rect id="Rectangle_188" data-name="Rectangle 188" width="18" height="18" transform="translate(-1.256 -0.309)" fill="#fff"/>
    <path id="Vector" d="M13.333,16.708a2.681,2.681,0,0,0,1.886-.773A2.624,2.624,0,0,0,16,14.07V3.517a2.624,2.624,0,0,0-.781-1.865A2.681,2.681,0,0,0,13.333.879h-.889a.875.875,0,0,0-.26-.622.9.9,0,0,0-1.257,0,.875.875,0,0,0-.26.622H5.333a.875.875,0,0,0-.26-.622.9.9,0,0,0-1.257,0,.875.875,0,0,0-.26.622H2.667a2.681,2.681,0,0,0-1.886.773A2.624,2.624,0,0,0,0,3.517V14.07a2.624,2.624,0,0,0,.781,1.865,2.681,2.681,0,0,0,1.886.773ZM2.038,2.9a.894.894,0,0,1,.629-.258h.889v.879a.875.875,0,0,0,.26.622.9.9,0,0,0,1.257,0,.875.875,0,0,0,.26-.622V2.638h5.333v.879a.875.875,0,0,0,.26.622.9.9,0,0,0,1.257,0,.875.875,0,0,0,.26-.622V2.638h.889a.894.894,0,0,1,.629.258.875.875,0,0,1,.26.622V6.156H1.778V3.517A.875.875,0,0,1,2.038,2.9ZM14.222,7.914V14.07a.875.875,0,0,1-.26.622.894.894,0,0,1-.629.258H2.667a.894.894,0,0,1-.629-.258.875.875,0,0,1-.26-.622V7.914Z" transform="translate(-0.256 0.338)" style="isolation: isolate"/>
  </g>
</svg>
