<svg xmlns="http://www.w3.org/2000/svg" width="18" height="18" viewBox="0 0 18 18">
  <g id="call" transform="translate(-805 -46)">
    <rect id="Rectangle_556" data-name="Rectangle 556" width="18" height="18" transform="translate(805 46)" fill="none"/>
    <path id="call-9" d="M131.625,135.8a15.059,15.059,0,0,0,6.59,6.585l2.2-2.2a1,1,0,0,1,1.015-.245,11.383,11.383,0,0,0,3.57.57,1,1,0,0,1,1,1V145a1,1,0,0,1-1,1,17,17,0,0,1-17-17,1,1,0,0,1,1-1h3.5a1,1,0,0,1,1,1,11.383,11.383,0,0,0,.57,3.57,1,1,0,0,1-.245,1.015l-2.2,2.21Z" transform="translate(677 -82)"/>
  </g>
</svg>
