<svg xmlns="http://www.w3.org/2000/svg" width="18.155" height="18.1" viewBox="0 0 18.155 18.1">
  <g id="cap" transform="translate(1.454 5.12)" style="isolation: isolate">
    <rect id="Rectangle_182" data-name="Rectangle 182" width="17.393" height="17.393" transform="translate(-0.692 -4.414)" fill="none"/>
    <path id="Vector" d="M4.778,7.921a5.02,5.02,0,0,1-.826-4.46C.5,2.922-.7,8,2.526,9.151a3.23,3.23,0,0,0,2.251-.077v6.152h7.58V9.074a3.039,3.039,0,0,0,2.176.077A2.95,2.95,0,0,0,13.109,3.46a4.775,4.775,0,0,1-.75,4.46c-.3.384-.826-.077-.525-.461A4.23,4.23,0,0,0,8.53.692,4.2,4.2,0,0,0,5.3,7.459C5.6,7.844,5,8.305,4.778,7.921Zm-2.4,1.922c-4.128-1.461-2.477-7.921,1.876-7a4.7,4.7,0,0,1,8.631,0c4.353-.923,6,5.537,1.876,7A4.275,4.275,0,0,1,13.033,10v5.921H4.1V10A4.276,4.276,0,0,1,2.376,9.843ZM4.4,16.687h8.331c.375,0,.375.692,0,.692H4.4A.346.346,0,0,1,4.4,16.687Z"  transform="translate(-1.299 -5.02)" stroke="#000" stroke-width="0.2" style="isolation: isolate"/>
  </g>
</svg>
