<svg xmlns="http://www.w3.org/2000/svg" width="18" height="18" viewBox="0 0 18 18">
  <g id="card" transform="translate(-79 -78)">
    <rect id="Rectangle_560" data-name="Rectangle 560" width="18" height="18" transform="translate(79 78)" fill="none"/>
    <path id="card-2" data-name="card" d="M84.19,209.074H70.344A1.873,1.873,0,0,1,68.267,207v-8.654a1.873,1.873,0,0,1,2.077-2.077H84.19a1.873,1.873,0,0,1,2.077,2.077V207A1.873,1.873,0,0,1,84.19,209.074Zm-15.231-6.923V207c0,.958.427,1.385,1.385,1.385H84.19c.958,0,1.385-.427,1.385-1.385v-4.846H68.959Zm0-.692H85.574V198.69H68.959v2.769ZM68.981,198H85.553c-.1-.715-.53-1.038-1.363-1.038H70.344C69.51,196.959,69.079,197.283,68.981,198Zm8.3,9.346H73.822a.346.346,0,0,1,0-.692h3.462a.346.346,0,1,1,0,.692Zm-5.192,0H70.344a.346.346,0,0,1,0-.692h1.748a.346.346,0,0,1,0,.692Z" transform="translate(10.733 -115.672)"/>
  </g>
</svg>
