<svg xmlns="http://www.w3.org/2000/svg" width="18" height="18" viewBox="0 0 18 18">
  <g id="close" transform="translate(-442 -46)">
    <rect id="Rectangle_556" data-name="Rectangle 556" width="18" height="18" transform="translate(442 46)" fill="none"/>
    <path id="Path_244" data-name="Path 244" d="M401.443,1466.9l7.246-8.636a.221.221,0,0,0-.169-.364h-2.2a.438.438,0,0,0-.339.158L400,1465.183l-5.976-7.125a.432.432,0,0,0-.34-.158h-2.2a.221.221,0,0,0-.168.364l7.246,8.636-7.246,8.636a.216.216,0,0,0-.032.234.246.246,0,0,0,.081.1.242.242,0,0,0,.119.034h2.2a.463.463,0,0,0,.34-.158l5.976-7.125,5.977,7.125a.452.452,0,0,0,.339.158h2.2a.221.221,0,0,0,.169-.364Z" transform="translate(50.737 -1411.9)" fill="rgba(0,0,0,0.85)"/>
  </g>
</svg>
