<svg id="close-circle" xmlns="http://www.w3.org/2000/svg" width="18" height="18" viewBox="0 0 18 18">
  <path id="Path_58" data-name="Path 58" d="M12.483,5.823a.161.161,0,0,0-.161-.161L11,5.668,9,8.049,7,5.67,5.677,5.664a.16.16,0,0,0-.161.161.167.167,0,0,0,.038.1L8.168,9.043,5.554,12.155a.167.167,0,0,0-.038.1.161.161,0,0,0,.161.161L7,12.414,9,10.034l1.995,2.379,1.326.006a.16.16,0,0,0,.161-.161.167.167,0,0,0-.038-.1L9.833,9.041l2.614-3.114A.161.161,0,0,0,12.483,5.823Z"/>
  <path id="Path_59" data-name="Path 59" d="M9,0a9,9,0,1,0,9,9A9,9,0,0,0,9,0ZM9,16.473A7.473,7.473,0,1,1,16.473,9,7.475,7.475,0,0,1,9,16.473Z"/>
</svg>
