<svg xmlns="http://www.w3.org/2000/svg" width="18.009" height="18.001" viewBox="0 0 18.009 18.001">
  <g id="connect" transform="translate(-640 -45.999)">
    <rect id="Rectangle_556" data-name="Rectangle 556" width="18" height="18" transform="translate(640 46)" fill="none"/>
    <path id="Path_473" data-name="Path 473" d="M709.566,3737.6l-.936-.934a.185.185,0,0,0-.252,0l-1.68,1.681a4.42,4.42,0,0,0-5.6.533l-2.249,2.252a.172.172,0,0,0-.051.121.176.176,0,0,0,.051.126l6,6a.183.183,0,0,0,.126.05.187.187,0,0,0,.126-.05l2.249-2.252a4.416,4.416,0,0,0,.536-5.592l1.68-1.681A.182.182,0,0,0,709.566,3737.6Zm-3.28,6.466-1.311,1.313-4.123-4.125,1.311-1.307a2.914,2.914,0,1,1,4.123,4.12Zm-4.2,2.318a.182.182,0,0,0-.249,0l-1.47,1.472-1.993-1.994,1.472-1.472a.181.181,0,0,0,0-.252l-.8-.8a.176.176,0,0,0-.125-.05.174.174,0,0,0-.125.05l-1.472,1.472-.949-.95a.218.218,0,0,0-.058-.039.292.292,0,0,0-.068-.011.186.186,0,0,0-.126.05l-2.247,2.252a4.415,4.415,0,0,0-.537,5.592l-1.679,1.681a.176.176,0,0,0-.052.126.174.174,0,0,0,.052.121l.935.939a.183.183,0,0,0,.126.049.181.181,0,0,0,.126-.049l1.68-1.681a4.412,4.412,0,0,0,5.6-.538l2.249-2.247a.174.174,0,0,0,0-.247l-.949-.95,1.472-1.472a.182.182,0,0,0,0-.253Zm-3.028,4.911a2.958,2.958,0,0,1-.945.632,2.929,2.929,0,0,1-3.178-.632,2.938,2.938,0,0,1-.633-.95,2.915,2.915,0,0,1,.633-3.175l1.311-1.313,4.123,4.125Z" transform="translate(-51.608 -3690.621)" fill="rgba(0,0,0,0.85)"/>
  </g>
</svg>
