<svg id="dashboard" xmlns="http://www.w3.org/2000/svg" width="18" height="18" viewBox="0 0 18 18">
  <rect id="Rectangle_182" data-name="Rectangle 182" width="18" height="18" fill="none"/>
  <path id="Vector" d="M8.572.131.125,8.574a.433.433,0,0,0,.3.737H1.946v8.01a.433.433,0,0,0,.433.433H6.711a.433.433,0,0,0,.433-.433V11.909H10.61v5.412a.433.433,0,0,0,.433.433h4.332a.433.433,0,0,0,.433-.433V9.311h1.516a.433.433,0,0,0,.3-.737L9.182.131a.419.419,0,0,0-.609,0Zm7.709,8.314h-.907a.433.433,0,0,0-.433.433v8.01H11.476V11.476a.433.433,0,0,0-.433-.433H6.711a.433.433,0,0,0-.433.433v5.412H2.812V8.878a.433.433,0,0,0-.433-.433H1.472l7.4-7.4Z" transform="translate(0 0)" style="isolation: isolate"/>
</svg>
