<svg xmlns="http://www.w3.org/2000/svg" width="18" height="18" viewBox="0 0 18 18">
  <g id="delivery-1" transform="translate(-13 -78)">
    <rect id="Rectangle_557" data-name="Rectangle 557" width="18" height="18" transform="translate(13 78)" fill="none"/>
    <path id="delivery-17" d="M17.209,69.273a2.436,2.436,0,0,0,2.4-2.244h1.81V60.651L19.25,57.129a2.714,2.714,0,0,0-2.315-1.312H14.344A2.784,2.784,0,0,0,11.6,53.029H6.164a2.794,2.794,0,0,0-1.959.849,2.752,2.752,0,0,0-.785,1.971V64.8A2.232,2.232,0,0,0,5.184,67a2.367,2.367,0,0,0,.723,1.557,2.4,2.4,0,0,0,1.666.677h.012a2.393,2.393,0,0,0,2.4-2.194h3.146a.525.525,0,0,0,.212.044h1.434l.037,0a2.443,2.443,0,0,0,2.394,2.19h0ZM7.593,65.588h.029a1.267,1.267,0,0,1-.028,2.534,1.3,1.3,0,0,1-.912-.393,1.256,1.256,0,0,1,.91-2.142h0Zm9.613-.092a1.313,1.313,0,1,1-.913,2.234,1.285,1.285,0,0,1-.364-.919v0a1.276,1.276,0,0,1,.366-.919,1.3,1.3,0,0,1,.912-.393Zm0-1.161a2.425,2.425,0,0,0-2.266,1.606.536.536,0,0,0-.173-.029h-.427V56.978h2.594a1.587,1.587,0,0,1,1.359.775L20.281,61v4.9h-.839a2.445,2.445,0,0,0-2.233-1.555h0ZM9.832,65.89a2.379,2.379,0,0,0-2.226-1.555H7.594a2.383,2.383,0,0,0-2.224,1.516,1.09,1.09,0,0,1-.81-1.062v-.1h0V55.848a1.638,1.638,0,0,1,1.609-1.66H11.6a1.637,1.637,0,0,1,1.609,1.658V65.89H9.832Zm8.68-4.556a.587.587,0,0,0,0-1.173H16.738V58.326a.56.56,0,0,0-.16-.409.57.57,0,0,0-.4-.169H16.17a.584.584,0,0,0-.58.575v3.011Z" transform="translate(9.581 25.848)"/>
  </g>
</svg>
