<svg xmlns="http://www.w3.org/2000/svg" width="27" height="29.724" viewBox="0 0 27 29.724">
  <path id="Deliveroo" d="M19.469,0,18.085,13.107,15.722,2.057,8.316,3.623l2.361,11.049L0,16.929l1.886,8.826,18.777,3.968,4.294-9.591L27,.788,19.469,0h0ZM13.536,19.014a1.383,1.383,0,0,1-1.442.14c-.542-.179-.783-.831-.578-1.62.153-.585.873-.673,1.234-.679a.926.926,0,0,1,.4.081c.255.115.686.36.774.733a1.3,1.3,0,0,1-.383,1.343h0Zm5.436.608c-.281.486-1.019.55-1.746.2-.49-.239-.486-.846-.432-1.216a1.145,1.145,0,0,1,.237-.552,1.2,1.2,0,0,1,.8-.516,1.412,1.412,0,0,1,1.287.673,1.344,1.344,0,0,1-.148,1.415Z" fill="#00ccbc"/>
</svg>
