<svg xmlns="http://www.w3.org/2000/svg" width="18.005" height="18" viewBox="0 0 18.005 18">
  <g id="dispatch" transform="translate(1.256 0.309)" style="isolation: isolate">
    <rect id="Rectangle_188" data-name="Rectangle 188" width="18" height="18" transform="translate(-1.256 -0.309)" fill="#fff"/>
    <g id="Vector" transform="translate(-0.563 5.09)" style="isolation: isolate">
      <path d="M 5.823820114135742 0.640724241733551 L 0.07190000265836716 0.640724241733551 C 0.004670002497732639 0.640724241733551 -0.04799999669194221 0.587094247341156 -0.04799999669194221 0.5186342000961304 L -0.04799999669194221 0.07409422099590302 C -0.04799999669194221 0.005634217988699675 0.004670002497732639 -0.04799578338861465 0.07190000265836716 -0.04799578338861465 L 5.823820114135742 -0.04799578338861465 C 5.891049861907959 -0.04799578338861465 5.943719863891602 0.005634217988699675 5.943719863891602 0.07409422099590302 L 5.943719863891602 0.5186342000961304 C 5.943719863891602 0.587094247341156 5.891049861907959 0.640724241733551 5.823820114135742 0.640724241733551 Z M 0.1917999982833862 0.3965442180633545 L 5.703919887542725 0.3965442180633545 L 5.703919887542725 0.1961842179298401 L 0.1917999982833862 0.1961842179298401 L 0.1917999982833862 0.3965442180633545 Z" stroke="none"/>
      <path d="M 0.0718998908996582 4.231929779052734e-06 C 0.03164005279541016 4.231929779052734e-06 0 0.03260421752929688 0 0.07409423589706421 L 0 0.5186342000961304 C 0 0.5601242184638977 0.03164005279541016 0.5927242040634155 0.0718998908996582 0.5927242040634155 L 5.823820114135742 0.5927242040634155 C 5.86407995223999 0.5927242040634155 5.8957200050354 0.5601242184638977 5.8957200050354 0.5186342000961304 L 5.8957200050354 0.07409423589706421 C 5.8957200050354 0.03260421752929688 5.86407995223999 4.231929779052734e-06 5.823820114135742 4.231929779052734e-06 L 0.0718998908996582 4.231929779052734e-06 M 5.751920223236084 0.4445441961288452 L 0.1437997817993164 0.4445441961288452 L 0.1437997817993164 0.148184210062027 L 5.751920223236084 0.148184210062027 L 5.751920223236084 0.4445441961288452 M 0.0718998908996582 -0.09599578380584717 L 5.823820114135742 -0.09599578380584717 C 5.916399955749512 -0.09599578380584717 5.991720199584961 -0.01969575881958008 5.991720199584961 0.07409423589706421 L 5.991720199584961 0.5186342000961304 C 5.991720199584961 0.6124241948127747 5.916399955749512 0.6887242197990417 5.823820114135742 0.6887242197990417 L 0.0718998908996582 0.6887242197990417 C -0.02067995071411133 0.6887242197990417 -0.09600019454956055 0.6124241948127747 -0.09600019454956055 0.5186342000961304 L -0.09600019454956055 0.07409423589706421 C -0.09600019454956055 -0.01969575881958008 -0.02067995071411133 -0.09599578380584717 0.0718998908996582 -0.09599578380584717 Z M 5.655920028686523 0.2441842257976532 L 0.239799976348877 0.2441842257976532 L 0.239799976348877 0.3485442399978638 L 5.655920028686523 0.3485442399978638 L 5.655920028686523 0.2441842257976532 Z" stroke="none" fill="#000"/>
    </g>
    <g id="Vector-2" data-name="Vector" transform="translate(-0.563 1.467)" style="isolation: isolate">
      <path d="M 5.816050052642822 3.308002471923828 L 0.0796700045466423 3.308002471923828 C 0.008080002851784229 3.308002471923828 -0.04799999669194221 3.254382610321045 -0.04799999669194221 3.185922384262085 C -0.04799999669194221 2.454972505569458 0.2550199925899506 1.764012455940247 0.8052499890327454 1.2403324842453 C 1.323290705680847 0.7472953200340271 2.005913019180298 0.4539643228054047 2.739204406738281 0.4067310690879822 C 2.690025091171265 0.3576105833053589 2.660840034484863 0.2920669615268707 2.660840034484863 0.2222725003957748 C 2.660840034484863 0.07324250042438507 2.789599895477295 -0.04799750074744225 2.9478600025177 -0.04799750074744225 C 3.106120109558105 -0.04799750074744225 3.234879970550537 0.07324250042438507 3.234879970550537 0.2222725003957748 C 3.234879970550537 0.2920176982879639 3.205739259719849 0.3575131595134735 3.156628608703613 0.4066187143325806 C 3.889741897583008 0.4532466530799866 4.572283267974854 0.7464184761047363 5.090469837188721 1.239792466163635 C 5.640699863433838 1.763662457466125 5.943719863891602 2.454812526702881 5.943719863891602 3.185922384262085 C 5.943719863891602 3.254382610321045 5.887639999389648 3.308002471923828 5.816050052642822 3.308002471923828 Z M 0.2108984142541885 3.063822507858276 L 5.684822559356689 3.063822507858276 C 5.652379989624023 2.419687986373901 5.360733032226562 1.817852139472961 4.860030174255371 1.364402532577515 C 4.34473991394043 0.8977425098419189 3.665649890899658 0.6407325267791748 2.9478600025177 0.6407325267791748 C 2.230070114135742 0.6407325267791748 1.550979971885681 0.8977324962615967 1.035689949989319 1.364402532577515 C 0.5349968671798706 1.817852139472961 0.2433501034975052 2.419687986373901 0.2108984142541885 3.063822507858276 Z" stroke="none"/>
      <path d="M 5.816050052642822 3.260002613067627 C 5.860660076141357 3.260002613067627 5.8957200050354 3.227412462234497 5.8957200050354 3.185922384262085 C 5.8957200050354 1.699642539024353 4.616189956665039 0.4875225126743317 3.027529954910278 0.4489924907684326 L 3.027529954910278 0.4312124848365784 C 3.11995005607605 0.4000925123691559 3.186880111694336 0.3185924887657166 3.186880111694336 0.2222725003957748 C 3.186880111694336 0.09928249567747116 3.0801100730896 2.498626599845011e-06 2.9478600025177 2.498626599845011e-06 C 2.815599918365479 2.498626599845011e-06 2.708839893341064 0.09928249567747116 2.708839893341064 0.2222725003957748 C 2.708839893341064 0.3185924887657166 2.775769948959351 0.4000925123691559 2.8681800365448 0.4312124848365784 L 2.8681800365448 0.4489924907684326 C 1.279530048370361 0.4890024960041046 2.517699826398712e-09 1.699642539024353 2.517699826398712e-09 3.185922384262085 C 2.517699826398712e-09 3.227412462234497 0.03506000339984894 3.260002613067627 0.0796700045466423 3.260002613067627 L 5.816050052642822 3.260002613067627 M 5.734779834747314 3.111822605133057 L 0.1609400063753128 3.111822605133057 C 0.2023700028657913 1.715952515602112 1.437280058860779 0.5927324891090393 2.9478600025177 0.5927324891090393 C 4.458439826965332 0.5927324891090393 5.693359851837158 1.715952515602112 5.734779834747314 3.111822605133057 M 2.9478600025177 0.1481824964284897 C 2.992470026016235 0.1481824964284897 3.027529954910278 0.1807824969291687 3.027529954910278 0.2222725003957748 C 3.027529954910278 0.263762503862381 2.992470026016235 0.2963624894618988 2.9478600025177 0.2963624894618988 C 2.903249979019165 0.2963624894618988 2.8681800365448 0.263762503862381 2.8681800365448 0.2222725003957748 C 2.8681800365448 0.1807824969291687 2.903249979019165 0.1481824964284897 2.9478600025177 0.1481824964284897 M 5.816050052642822 3.356002569198608 L 0.0796700045466423 3.356002569198608 C -0.01718999817967415 3.356002569198608 -0.09600000083446503 3.279702425003052 -0.09600000083446503 3.185922384262085 C -0.09600000083446503 2.441702604293823 0.2123199999332428 1.738392472267151 0.7721599936485291 1.205562472343445 C 1.277847170829773 0.7242853045463562 1.937800765037537 0.4303420782089233 2.649245023727417 0.3655747771263123 C 2.625815391540527 0.3220013976097107 2.612839937210083 0.2731115818023682 2.612839937210083 0.2222725003957748 C 2.612839937210083 0.04678249731659889 2.763129949569702 -0.09599750488996506 2.9478600025177 -0.09599750488996506 C 3.132590055465698 -0.09599750488996506 3.282880067825317 0.04678249731659889 3.282880067825317 0.2222725003957748 C 3.282880067825317 0.27304607629776 3.269937038421631 0.3218741714954376 3.246562719345093 0.3654050827026367 C 3.957854986190796 0.4296169579029083 4.617725849151611 0.7234143018722534 5.123569965362549 1.20502245426178 C 5.68340015411377 1.73804247379303 5.991720199584961 2.441542387008667 5.991720199584961 3.185922384262085 C 5.991720199584961 3.279702425003052 5.912909984588623 3.356002569198608 5.816050052642822 3.356002569198608 Z M 0.2619255185127258 3.015822410583496 L 5.633795738220215 3.015822410583496 C 5.589669704437256 2.403527021408081 5.305889129638672 1.83294141292572 4.827809810638428 1.399982452392578 C 4.321360111236572 0.9413225054740906 3.653719902038574 0.6887325048446655 2.9478600025177 0.6887325048446655 C 2.242000102996826 0.6887325048446655 1.574360013008118 0.9413225054740906 1.067909955978394 1.399982452392578 C 0.5898405313491821 1.83294141292572 0.3060604631900787 2.403527021408081 0.2619255185127258 3.015822410583496 Z" stroke="none" fill="#000"/>
    </g>
    <path id="Vector-3" data-name="Vector" d="M16.338,6.236A1.1,1.1,0,0,0,15.5,5.188V2.969h.938a.305.305,0,0,0,.312-.3v-.1h.1A1.12,1.12,0,0,0,18,1.485,1.12,1.12,0,0,0,16.859.4h-.1V.3a.3.3,0,0,0-.312-.3H14.358a1.12,1.12,0,0,0-1.146,1.089v.1H12.49a.3.3,0,0,0-.312.3.3.3,0,0,0,.312.3h.722V6.632a1.323,1.323,0,0,1-1.355,1.287H9.488l.642-1.98a.891.891,0,1,0-.023-1.781H.729a.3.3,0,0,0-.312.3v.4A1.12,1.12,0,0,0,1.563,5.939H2.3A2.624,2.624,0,0,0,1.252,7.97,3.013,3.013,0,0,0,0,10.393a.305.305,0,0,0,.312.3h.752A2.158,2.158,0,0,0,3.23,12.472,2.158,2.158,0,0,0,5.4,10.69h.752a.305.305,0,0,0,.312-.3c0-.1-.006-.2-.015-.3h5.983a2.538,2.538,0,0,0-.049.495.3.3,0,0,0,.312.3h.546a2,2,0,0,0,3.91,0h.546a.3.3,0,0,0,.312-.3,2.673,2.673,0,0,0-1.667-2.44ZM17.38,1.484a.509.509,0,0,1-.521.495h-.1V.989h.1A.509.509,0,0,1,17.38,1.484Zm-3.543-.3v-.1a.509.509,0,0,1,.521-.495h1.771V2.375H13.837V1.781h.792a.3.3,0,0,0,.312-.3.305.305,0,0,0-.312-.3ZM1.042,4.85v-.1h9.065a.3.3,0,1,1,0,.594H1.563A.509.509,0,0,1,1.042,4.85ZM1.7,10.691H4.761A1.547,1.547,0,0,1,3.23,11.879,1.548,1.548,0,0,1,1.7,10.691ZM3.23,7.919A2.565,2.565,0,0,1,5.816,10.1H.644A2.566,2.566,0,0,1,3.23,7.919Zm0-.594a3.351,3.351,0,0,0-1.307.264,2.168,2.168,0,0,1,2.141-1.65H9.475l-.709,2.19a.285.285,0,0,0,.047.264.318.318,0,0,0,.251.121h2.793a1.934,1.934,0,0,0,1.98-1.881V2.969h1.042V5.147h-.1a.3.3,0,1,0,0,.594h.417a.509.509,0,0,1,.521.495v1.73a2.944,2.944,0,0,0-.521-.047A2.826,2.826,0,0,0,12.624,9.5h-6.3A3.219,3.219,0,0,0,3.23,7.325Zm10.644,3.564H16.51a1.372,1.372,0,0,1-2.635,0Zm1.318-2.376a2.159,2.159,0,0,1,2.166,1.782H13.026A2.159,2.159,0,0,1,15.192,8.513Z" transform="translate(-1.256 3.443)" style="isolation: isolate"/>
  </g>
</svg>
