<svg xmlns="http://www.w3.org/2000/svg" width="18.006" height="18" viewBox="0 0 18.006 18">
  <g id="download" transform="translate(-607 -46)">
    <rect id="Rectangle_556" data-name="Rectangle 556" width="18" height="18" transform="translate(607 46)" fill="none"/>
    <path id="Path_600" data-name="Path 600" d="M397.824,4742.911a.174.174,0,0,0,.067.054.208.208,0,0,0,.084.018.205.205,0,0,0,.084-.018.176.176,0,0,0,.068-.054l2.7-3.409a.193.193,0,0,0-.152-.312h-1.784v-8.148a.191.191,0,0,0-.192-.191h-1.445a.191.191,0,0,0-.192.191v8.142H395.28a.193.193,0,0,0-.152.312Zm8.962-.845h-1.444a.2.2,0,0,0-.192.192v3.708H390.8v-3.708a.2.2,0,0,0-.192-.192h-1.444a.2.2,0,0,0-.192.192v4.769a.772.772,0,0,0,.77.773h16.465a.772.772,0,0,0,.77-.773v-4.769A.2.2,0,0,0,406.786,4742.065Z" transform="translate(218.027 -4684.324)" fill="rgba(0,0,0,0.85)"/>
  </g>
</svg>
