<svg xmlns="http://www.w3.org/2000/svg" width="18" height="18" viewBox="0 0 18 18">
  <g id="edit" transform="translate(-706 -46)">
    <rect id="Rectangle_556" data-name="Rectangle 556" width="18" height="18" transform="translate(706 46)" fill="none"/>
    <path id="Path_270" data-name="Path 270" d="M87.205,1739.318a1.093,1.093,0,0,0,.135-.011l3.783-.666a.2.2,0,0,0,.119-.062l9.535-9.533a.236.236,0,0,0,.049-.073.225.225,0,0,0,.017-.084.222.222,0,0,0-.065-.162l-3.738-3.74a.223.223,0,0,0-.319,0l-9.535,9.534a.24.24,0,0,0-.063.123l-.664,3.779a.763.763,0,0,0,.023.364.732.732,0,0,0,.189.308A.757.757,0,0,0,87.205,1739.318Zm1.516-3.924,8.158-8.156,1.649,1.651-8.158,8.156-2,.353ZM101.2,1741.2H84.648a.721.721,0,0,0-.72.722v.812a.182.182,0,0,0,.18.179h17.634a.182.182,0,0,0,.18-.179v-.812A.721.721,0,0,0,101.2,1741.2Z" transform="translate(622.072 -1678.918)" fill="rgba(0,0,0,0.85)"/>
  </g>
</svg>
