<svg xmlns="http://www.w3.org/2000/svg" width="18" height="18" viewBox="0 0 18 18">
  <g id="eye-hide" transform="translate(-229 -4925)">
    <rect id="Rectangle_553" data-name="Rectangle 553" width="18" height="18" transform="translate(229 4925)" fill="#fff"/>
    <path id="Path_622" data-name="Path 622" d="M252.363,4930.817a12.645,12.645,0,0,0-2.59-3.74l-1.051,1.048a11.1,11.1,0,0,1,2.248,3.227c-1.717,3.55-4.155,5.241-7.487,5.241a7.985,7.985,0,0,1-2.763-.462l-1.138,1.141a9.212,9.212,0,0,0,3.9.806q5.952,0,8.88-6.2a1.246,1.246,0,0,0,0-1.063Zm-1.312-6.618-.88-.883a.21.21,0,0,0-.053-.036.271.271,0,0,0-.063-.011.266.266,0,0,0-.063.011.213.213,0,0,0-.054.036l-2.257,2.255a9.141,9.141,0,0,0-4.2-.951q-5.951,0-8.88,6.2a1.269,1.269,0,0,0-.119.534,1.231,1.231,0,0,0,.119.529,12.4,12.4,0,0,0,2.818,3.951l-2.184,2.184a.171.171,0,0,0-.048.118.164.164,0,0,0,.048.118l.881.879a.16.16,0,0,0,.234,0l14.7-14.7a.155.155,0,0,0,.036-.051.174.174,0,0,0,.012-.067.164.164,0,0,0-.012-.062A.157.157,0,0,0,251.051,4924.2ZM236,4931.351c1.72-3.555,4.157-5.245,7.487-5.245a7.863,7.863,0,0,1,3.078.585l-1.451,1.454a3.631,3.631,0,0,0-4.916,4.912l-1.722,1.726A10.763,10.763,0,0,1,236,4931.351Zm5.093,0a2.311,2.311,0,0,1,.251-1.048,2.317,2.317,0,0,1,1.692-1.238,2.309,2.309,0,0,1,1.074.082l-2.908,2.908A2.3,2.3,0,0,1,241.088,4931.351Z" transform="translate(-5.482 2.73)" fill="rgba(0,0,0,0.85)"/>
    <path id="Path_623" data-name="Path 623" d="M250.608,4940.082a1.525,1.525,0,0,1-.212-.01l-1.09,1.094a3.7,3.7,0,0,0,2.057.159A3.636,3.636,0,0,0,254,4936.47l-1.091,1.089c.007.072.01.139.01.211a2.311,2.311,0,0,1-.677,1.639,2.392,2.392,0,0,1-.75.5A2.277,2.277,0,0,1,250.608,4940.082Z" transform="translate(-12.69 -3.688)" fill="rgba(0,0,0,0.85)"/>
  </g>
</svg>
