<svg xmlns="http://www.w3.org/2000/svg" width="18" height="18" viewBox="0 0 18 18">
  <g id="eye" transform="translate(-405 -562)">
    <rect id="Rectangle_554" data-name="Rectangle 554" width="18" height="18" transform="translate(405 562)" fill="#fff"/>
    <path id="Path_620" data-name="Path 620" d="M100.364,4932.1c-1.957-4.126-4.915-6.2-8.881-6.2s-6.924,2.076-8.881,6.2a1.246,1.246,0,0,0,0,1.063c1.957,4.121,4.915,6.2,8.881,6.2s6.924-2.076,8.881-6.2A1.247,1.247,0,0,0,100.364,4932.1Zm-8.881,5.774c-3.33,0-5.768-1.69-7.487-5.245,1.72-3.556,4.158-5.241,7.487-5.241s5.768,1.685,7.488,5.241C97.253,4936.186,94.815,4937.876,91.483,4937.876ZM91.4,4929a3.632,3.632,0,1,0,3.633,3.632A3.635,3.635,0,0,0,91.4,4929Zm0,5.944a2.312,2.312,0,1,1,2.312-2.312A2.31,2.31,0,0,1,91.4,4934.943Z" transform="translate(322.517 -4361.631)" fill="rgba(0,0,0,0.85)"/>
  </g>
</svg>
