<svg id="facebook" xmlns="http://www.w3.org/2000/svg" width="16.004" height="16.004" viewBox="0 0 16.004 16.004">
  <path id="Path_1102" data-name="Path 1102" d="M8,16H8A8,8,0,0,1,0,8H0A8,8,0,0,1,8,0H8a8,8,0,0,1,8,8h0A8,8,0,0,1,8,16Z" transform="translate(0 0)" fill="#3b579d"/>
  <path id="f" d="M348.38,164.686v-6.2h2.081l.312-2.415H348.38V154.53c0-.7.194-1.176,1.2-1.176h1.279v-2.159a17.352,17.352,0,0,0-1.864-.094,2.91,2.91,0,0,0-3.106,3.193v1.781H343.8v2.415h2.085v6.2Z" transform="translate(-338.298 -148.682)" fill="#fff"/>
</svg>
