<svg xmlns="http://www.w3.org/2000/svg" width="18" height="18" viewBox="0 0 18 18">
  <g id="file-xl" transform="translate(-475 -46)">
    <rect id="Rectangle_556" data-name="Rectangle 556" width="18" height="18" transform="translate(475 46)" fill="none"/>
    <path id="Path_638" data-name="Path 638" d="M403.81,5022.51l-4.323-4.32a.647.647,0,0,0-.454-.19H390.5a.641.641,0,0,0-.643.645v16.71a.641.641,0,0,0,.643.645h12.857a.641.641,0,0,0,.643-.645V5022.97A.657.657,0,0,0,403.81,5022.51Zm-1.294.755h-3.781v-3.779Zm.036,11.29H391.3v-15.109h6.067v4.34a.848.848,0,0,0,.844.845h4.339Zm-5.583-6.185-1.241-2.06a.246.246,0,0,0-.207-.115h-.771a.2.2,0,0,0-.129.04.236.236,0,0,0-.074.33l1.654,2.62-1.676,2.67a.222.222,0,0,0-.036.12.254.254,0,0,0,.03.125.246.246,0,0,0,.089.09.261.261,0,0,0,.122.035h.693a.246.246,0,0,0,.205-.115l1.26-2.04,1.251,2.035a.235.235,0,0,0,.205.115h.753a.3.3,0,0,0,.131-.035.243.243,0,0,0,.072-.335l-1.687-2.62,1.714-2.66a.258.258,0,0,0,.038-.125.261.261,0,0,0-.03-.125.29.29,0,0,0-.089-.09.262.262,0,0,0-.122-.035h-.717a.241.241,0,0,0-.207.12Z" transform="translate(87.144 -4972)" fill="rgba(0,0,0,0.85)"/>
  </g>
</svg>
