<svg xmlns="http://www.w3.org/2000/svg" width="18" height="18" viewBox="0 0 18 18">
  <g id="filter" transform="translate(-772 -46)">
    <rect id="Rectangle_556" data-name="Rectangle 556" width="18" height="18" transform="translate(772 46)" fill="none"/>
    <path id="Vector" d="M.009-.676h16.63a.686.686,0,0,1,.621.388.66.66,0,0,1-.1.715l-6.49,7.516v6.709a.668.668,0,0,1-.325.571.7.7,0,0,1-.666.029L6.354,13.624a.669.669,0,0,1-.379-.6V7.944L-.514.428a.66.66,0,0,1-.1-.715A.686.686,0,0,1,.009-.676ZM15.163.665H1.485l5.7,6.6a.663.663,0,0,1,.162.433V12.61l1.956.958V7.7a.663.663,0,0,1,.162-.433Z" transform="translate(772.676 47.676)"/>
  </g>
</svg>
