<svg xmlns="http://www.w3.org/2000/svg" width="18" height="18" viewBox="0 0 18 18">
  <g id="Group_584" data-name="Group 584" transform="translate(-46 -45)">
    <rect id="Rectangle_549" data-name="Rectangle 549" width="18" height="18" transform="translate(46 45)" fill="#fff"/>
    <path id="Path_976" data-name="Path 976" d="M394.847,1550a8.847,8.847,0,1,0,8.847,8.847A8.847,8.847,0,0,0,394.847,1550Zm0,16.194a7.348,7.348,0,1,1,7.346-7.348A7.349,7.349,0,0,1,394.847,1566.194Z" transform="translate(-340 -1504.693)" fill="rgba(0,0,0,0.85)"/>
    <path id="Path_977" data-name="Path 977" d="M406.8,1565.752l-2.816-2.035v-4.885a.161.161,0,0,0-.158-.162h-.95a.161.161,0,0,0-.158.162v5.436a.152.152,0,0,0,.065.128l3.266,2.384a.162.162,0,0,0,.221-.034l.565-.772A.158.158,0,0,0,406.8,1565.752Z" transform="translate(-348.5 -1509.102)" fill="rgba(0,0,0,0.85)"/>
  </g>
</svg>
