<svg xmlns="http://www.w3.org/2000/svg" width="17.998" height="17.999" viewBox="0 0 17.998 17.999">
  <g id="help" transform="translate(-9.513 -3.513)">
    <rect id="Rectangle_182" data-name="Rectangle 182" width="17.847" height="17.847" transform="translate(9.589 3.589)" fill="none"/>
    <g id="Group_70" data-name="Group 70" transform="translate(9.513 3.513)">
      <path id="Vector" d="M0,9A9,9,0,1,0,9,0,8.994,8.994,0,0,0,0,9ZM1.256,9A7.744,7.744,0,1,1,9,16.743,7.752,7.752,0,0,1,1.256,9Z" transform="translate(0 0)" style="isolation: isolate"/>
      <path id="Vector-2" data-name="Vector" d="M0,.912a.91.91,0,0,0,.9.912A.92.92,0,0,0,1.812.912.92.92,0,0,0,.9,0,.91.91,0,0,0,0,.912Z" transform="translate(7.833 11.387)" fill="#1d1d1d" style="isolation: isolate"/>
      <path id="Vector-3" data-name="Vector" d="M0,1.587a.679.679,0,0,0,.711.675c.64,0,.379-.912,1.587-.912.592,0,1.066.261,1.066.806,0,.64-.663,1.007-1.054,1.339a2.168,2.168,0,0,0-.794,1.8c0,.616.166.794.652.794.58,0,.7-.261.7-.486A1.488,1.488,0,0,1,3.53,4.122,3.032,3.032,0,0,0,4.857,1.955C4.857.841,3.85,0,2.334,0,.734,0,0,.948,0,1.587Z" transform="translate(6.554 4.481)" fill="#1d1d1d" style="isolation: isolate"/>
    </g>
  </g>
</svg>
