<svg xmlns="http://www.w3.org/2000/svg" width="27.515" height="27.371" viewBox="0 0 27.515 27.371">
  <path id="just-eat" d="M14.664.833a38.167,38.167,0,0,1,3.9,2.807s.337.234.346-.162A6.178,6.178,0,0,1,19,1.949a.7.7,0,0,1,.648-.45s1.53.077,2.5.207a.949.949,0,0,1,.819.841s.625,4.166.765,5.668a4.912,4.912,0,0,0,1.228,2.06s2.249,3.149,2.51,3.752c0,0,.521,1.089-.6,1.237,0,0-2.052.207-2.25.252a.513.513,0,0,0-.45.558s-.108,7.247-.638,10.729c0,0-.14,1.382-.9,1.35,0,0-2.11-.067-2.6-.054,0,0-.211,0-.18-.283,0,0,1.075-11.3.346-17.013,0,0-.032-.738-.594-.9,0,0-.513-.207-1,.45a17.927,17.927,0,0,0-3.338,10.2,7.238,7.238,0,0,0,.216,2.249s.17.315,1.044.387l1.106.149s.2,0,.184.269c0,0-.252,3.316-.323,3.905a1.172,1.172,0,0,1-.081.391s-.04.113-.387.1c0,0-4.876-.035-5.425,0,0,0-.23,0-.278-.121s-.338-4.279-.329-4.867a.293.293,0,0,1,.171-.288,2.933,2.933,0,0,0,1.35-2.154,11.913,11.913,0,0,0,.027-1.895s.18-6.356.225-7.378c0,0,.035-.346-.414-.409a.419.419,0,0,0-.5.31v.035c0,.036-.315,4.193-.256,5.848,0,0,.108,1.084-.643,1.107,0,0-.729.108-.765-.8,0,0,.054-4.076.234-6.091a.456.456,0,0,0-.9-.086.075.075,0,0,0,0,.035s-.315,3.9-.257,5.961c0,0,.09,1-.706.962,0,0-.666.077-.7-.81,0,0,.18-5.582.23-6.014a.45.45,0,0,0-.4-.423H7.623a.451.451,0,0,0-.482.373.192.192,0,0,0,0,.04s-.3,6.676-.256,8.637a3.4,3.4,0,0,0,1.462,2.834s.22.126.225.32c0,0,.166,3.54.319,4.683,0,0,.055.274-.188.274l-3.747.1a.771.771,0,0,1-.765-.729A83.889,83.889,0,0,1,3.5,16.151a.576.576,0,0,0-.45-.616s-1.917-.175-2.38-.292a.8.8,0,0,1-.486-1.175C3.3,8.7,14.131.478,14.664.833Z" transform="translate(-0.073 -0.822)" fill="#ff8000"/>
</svg>
