<svg xmlns="http://www.w3.org/2000/svg" width="18" height="18" viewBox="0 0 18 18">
  <g id="left-circle" transform="translate(161 -521) rotate(90)">
    <path id="Path_104" data-name="Path 104" d="M555.84,323.7H554.9a.643.643,0,0,0-.52.265l-2.114,2.921-2.113-2.921a.641.641,0,0,0-.521-.265h-.942a.161.161,0,0,0-.13.255l3.576,4.942a.16.16,0,0,0,.259,0l3.576-4.942A.16.16,0,0,0,555.84,323.7Z" transform="translate(-22.264 -173.85)"/>
    <path id="Path_105" data-name="Path 105" d="M547,310a9,9,0,1,0,9,9A9,9,0,0,0,547,310Zm0,16.473A7.473,7.473,0,1,1,554.473,319,7.474,7.474,0,0,1,547,326.473Z" transform="translate(-17 -167)"/>
  </g>
</svg>
