<svg xmlns="http://www.w3.org/2000/svg" width="18" height="18" viewBox="0 0 18 18">
  <g id="lens" transform="translate(-574 -46)">
    <rect id="Rectangle_556" data-name="Rectangle 556" width="18" height="18" transform="translate(574 46)" fill="none"/>
    <path id="Path_870" data-name="Path 870" d="M405.871,6848.636l-5.842-5.845a6.734,6.734,0,1,0-1.242,1.243l5.842,5.839a.227.227,0,0,0,.06.039.154.154,0,0,0,.141,0,.236.236,0,0,0,.06-.039l.981-.98a.162.162,0,0,0,.04-.056.2.2,0,0,0,0-.146A.163.163,0,0,0,405.871,6848.636Zm-7.63-6.394a5.04,5.04,0,1,1,1.476-3.561A5.014,5.014,0,0,1,398.241,6842.243Z" transform="translate(186.071 -6785.93)" fill="rgba(0,0,0,0.85)"/>
  </g>
</svg>
