<svg xmlns="http://www.w3.org/2000/svg" width="18" height="18.001" viewBox="0 0 18 18.001">
  <g id="location" transform="translate(-340 -114.999)">
    <rect id="Rectangle_399" data-name="Rectangle 399" width="18" height="18" transform="translate(340 115)" fill="#fff"/>
    <path id="Path_982" data-name="Path 982" d="M707.507,4731.615a7.287,7.287,0,0,0-1.616-2.341,7.513,7.513,0,0,0-2.391-1.575,7.635,7.635,0,0,0-8.235,1.57,7.406,7.406,0,0,0-1.616,2.341,7.2,7.2,0,0,0-.594,2.874,9.545,9.545,0,0,0,1.013,4.219,13.384,13.384,0,0,0,2.245,3.2,17.912,17.912,0,0,0,3.811,3.091.891.891,0,0,0,.453.126.858.858,0,0,0,.453-.126,17.926,17.926,0,0,0,3.81-3.091,13.371,13.371,0,0,0,2.245-3.2,9.48,9.48,0,0,0,1.017-4.219A7.172,7.172,0,0,0,707.507,4731.615Zm-6.929,11.956c-1.333-.851-6.068-4.2-6.068-9.086a5.8,5.8,0,0,1,1.772-4.173,6.188,6.188,0,0,1,8.592.005,5.776,5.776,0,0,1,1.771,4.167C706.646,4739.368,701.911,4742.72,700.578,4743.571Zm0-12.484a3.559,3.559,0,1,0,3.56,3.559A3.558,3.558,0,0,0,700.578,4731.087Zm1.6,5.16a2.3,2.3,0,0,1-.735.493,2.331,2.331,0,0,1-.867.171,2.266,2.266,0,1,1,1.6-.664Z" transform="translate(-352.053 -4612.121)" fill="rgba(0,0,0,0.85)"/>
  </g>
</svg>
