<svg id="notes" xmlns="http://www.w3.org/2000/svg" width="18" height="18" viewBox="0 0 18 18">
  <rect id="Rectangle_181" data-name="Rectangle 181" width="18" height="18" fill="none"/>
  <path id="writing-icon" d="M16.007,2.872,17.8,4.32a.552.552,0,0,1,.082.775l-.8.989L14.433,3.945l.8-.99a.555.555,0,0,1,.775-.082ZM3.086,4.513a.466.466,0,1,1,0-.932h7.771a.466.466,0,1,1,0,.932ZM1.39,0H12.555a1.4,1.4,0,0,1,1.39,1.39v.825l-.656.81a1.437,1.437,0,0,0-.173.271c-.035.028-.07.059-.1.091v-2a.46.46,0,0,0-.457-.458H1.39a.46.46,0,0,0-.458.458V15.022a.463.463,0,0,0,.135.324.456.456,0,0,0,.324.135H12.555a.457.457,0,0,0,.457-.458v-2.1l.28-.119a1.465,1.465,0,0,0,.636-.458l.018-.021v2.7a1.4,1.4,0,0,1-1.39,1.384H1.39A1.393,1.393,0,0,1,0,15.022V1.39A1.4,1.4,0,0,1,1.39,0Zm1.7,12.832a.467.467,0,0,1,0-.933H8.231a5.435,5.435,0,0,0-.044.933Zm0-2.773a.467.467,0,0,1,0-.933H8.675v.04l-.154.894Zm0-2.773a.466.466,0,0,1,0-.932h7.525l-.749.932Zm9.694,4.14-1.878.8c-1.37.508-1.308.8-1.172-.564l.412-2.376h0l3.891-4.834,2.637,2.139-3.886,4.834ZM10.592,9.652l1.737,1.4-1.233.527c-.967.415-.94.62-.772-.371l.268-1.561Z" transform="translate(0 1.286)" fill-rule="evenodd"/>
</svg>
