<svg xmlns="http://www.w3.org/2000/svg" width="18" height="18" viewBox="0 0 18 18">
  <g id="pdf" transform="translate(-145 -45)">
    <rect id="Rectangle_552" data-name="Rectangle 552" width="18" height="18" transform="translate(145 45)" fill="#fff"/>
    <path id="Path_979" data-name="Path 979" d="M549.316,5125.255l.006-.03a3.79,3.79,0,0,0,.148-1.62.684.684,0,0,0-.661-.6.644.644,0,0,0-.671.425,4.231,4.231,0,0,0,.2,1.985c-.273.65-.709,1.595-1.029,2.16-.595.3-1.392.78-1.511,1.38a.577.577,0,0,0,.07.375.628.628,0,0,0,.331.3.564.564,0,0,0,.217.04c.354,0,.926-.285,1.689-1.595.117-.035.237-.075.354-.115a10.987,10.987,0,0,1,1.625-.465,3.91,3.91,0,0,0,1.65.5.669.669,0,0,0,.669-.415.763.763,0,0,0-.125-.795c-.265-.26-.91-.33-1.914-.205A2.47,2.47,0,0,1,549.316,5125.255Zm-2.2,3.05a3.054,3.054,0,0,1-.6.7A3.14,3.14,0,0,1,547.112,5128.3Zm1.76-4.729a1.793,1.793,0,0,1,.01.99,2.429,2.429,0,0,1-.054-1.03C548.843,5123.535,548.857,5123.55,548.872,5123.575Zm-.033,2.42a3.355,3.355,0,0,0,.786.93,7.126,7.126,0,0,0-1.183.405c-.085.035-.167.065-.247.1A12.087,12.087,0,0,0,548.839,5126Zm3.126,1.315s0,.01-.008.02h0l0,0c-.016.01-.181.1-.89-.175C551.875,5127.125,551.963,5127.31,551.965,5127.31Zm3.845-7.8-4.323-4.32a.647.647,0,0,0-.454-.19H542.5a.641.641,0,0,0-.643.645v16.71a.641.641,0,0,0,.643.645h12.857a.641.641,0,0,0,.643-.645V5119.97A.656.656,0,0,0,555.81,5119.51Zm-1.294.755h-3.781v-3.779Zm.036,11.29H543.3v-15.109h6.067v4.34a.848.848,0,0,0,.844.845h4.339Z" transform="translate(-394.928 -5070)" fill="rgba(0,0,0,0.85)"/>
  </g>
</svg>
