<svg xmlns="http://www.w3.org/2000/svg" width="18" height="18" viewBox="0 0 18 18">
  <g id="power" transform="translate(-79 -45)">
    <rect id="Rectangle_550" data-name="Rectangle 550" width="18" height="18" transform="translate(79 45)" fill="#fff"/>
    <path id="Path_978" data-name="Path 978" d="M703.214,6377.55a.209.209,0,0,0-.08-.015.142.142,0,0,0-.078.025.163.163,0,0,0-.056.06.147.147,0,0,0-.02.075v1.29a.332.332,0,0,0,.151.275,7.071,7.071,0,0,1,1.25,1,7.158,7.158,0,0,1,0,10.128,7.16,7.16,0,0,1-11.649-7.852,7.187,7.187,0,0,1,1.533-2.276,7.334,7.334,0,0,1,1.25-1,.327.327,0,0,0,.151-.275v-1.29a.163.163,0,0,0-.233-.145,8.681,8.681,0,1,0,7.781,0Zm-4.534,8.748h1.286a.164.164,0,0,0,.161-.165v-9.323a.163.163,0,0,0-.161-.16H698.68a.162.162,0,0,0-.161.16v9.323A.164.164,0,0,0,698.68,6386.3Z" transform="translate(-611.32 -6331.324)" fill="rgba(0,0,0,0.85)"/>
  </g>
</svg>
