<svg xmlns="http://www.w3.org/2000/svg" width="18" height="18" viewBox="0 0 18 18">
  <g id="print" transform="translate(-112 -45)">
    <rect id="Rectangle_551" data-name="Rectangle 551" width="18" height="18" transform="translate(112 45)" fill="#fff"/>
    <path id="Path_824" data-name="Path 824" d="M858.725,6384.874h-.857a.174.174,0,0,0-.172.171v.858a.171.171,0,0,0,.172.171h.857a.17.17,0,0,0,.171-.171v-.858A.174.174,0,0,0,858.725,6384.874Zm.686-2.229h-2.572v-4.539a.175.175,0,0,0-.171-.176h-9.086a.175.175,0,0,0-.171.176v4.539h-2.572a1.715,1.715,0,0,0-1.714,1.718v7.029a.683.683,0,0,0,.686.683h3.6v2.831a.173.173,0,0,0,.171.171h9.086a.173.173,0,0,0,.171-.171v-2.831h3.6a.683.683,0,0,0,.686-.683v-7.029A1.715,1.715,0,0,0,859.411,6382.645Zm-10.543-3.253h6.514v3.253h-6.514Zm6.514,14.223h-6.514v-5.909h6.514Zm4.286-3h-2.829v-4.373h-9.428v4.373h-2.829v-6.256a.256.256,0,0,1,.257-.257h14.572a.256.256,0,0,1,.257.257Z" transform="translate(-731.125 -6332.504)" fill="rgba(0,0,0,0.85)"/>
  </g>
</svg>
