<svg xmlns="http://www.w3.org/2000/svg" width="18" height="18" viewBox="0 0 18 18">
  <g id="refresh" transform="translate(-415 -94)">
    <rect id="Rectangle_555" data-name="Rectangle 555" width="18" height="18" transform="translate(415 94)" fill="#fff"/>
    <path id="Path_303" data-name="Path 303" d="M706.469,1935.5a9,9,0,1,0-11.218-.112.184.184,0,0,0,.256-.028l.886-1.137a.183.183,0,0,0-.027-.252,6.666,6.666,0,0,1-.526-.476,7.154,7.154,0,0,1-1.543-2.29,7.073,7.073,0,0,1-.567-2.794,7.2,7.2,0,1,1,12.29,5.085,6.77,6.77,0,0,1-.659.588l-.916-1.17a.175.175,0,0,0-.081-.062.2.2,0,0,0-.1-.006.176.176,0,0,0-.088.045.181.181,0,0,0-.049.09l-.891,3.646a.182.182,0,0,0,.173.224l3.758.017a.179.179,0,0,0,.142-.291Z" transform="translate(-276.929 -1825.138)" fill="rgba(0,0,0,0.85)"/>
  </g>
</svg>
