<svg xmlns="http://www.w3.org/2000/svg" width="18.002" height="18.001" viewBox="0 0 18.002 18.001">
  <g id="right-arrow" transform="translate(658 33.001) rotate(180)">
    <rect id="Rectangle_548" data-name="Rectangle 548" width="18" height="18" transform="translate(640 15)" fill="none"/>
    <path id="Path_145" data-name="Path 145" d="M711.416,612.37H709.38a.41.41,0,0,0-.3.137l-5.5,6.308V604.738a.2.2,0,0,0-.2-.2h-1.509a.2.2,0,0,0-.2.2v14.078l-5.5-6.308a.4.4,0,0,0-.3-.137h-2.037a.2.2,0,0,0-.151.33l8.344,9.562a.806.806,0,0,0,1.215,0l8.342-9.562A.2.2,0,0,0,711.416,612.37Z" transform="translate(1262.536 -678.616) rotate(90)" fill="rgba(0,0,0,0.85)"/>
  </g>
</svg>
