<svg xmlns="http://www.w3.org/2000/svg" width="18" height="18" viewBox="0 0 18 18">
  <g id="safty" transform="translate(-145 -45)">
    <rect id="Rectangle_552" data-name="Rectangle 552" width="18" height="18" transform="translate(145 45)" fill="#fff"/>
    <g id="Group_585" data-name="Group 585" transform="translate(-40.215 -93.25)">
      <path id="Path_861" data-name="Path 861" d="M702.214,6724.25l-7.714,2.572v7.714a7.714,7.714,0,0,0,15.429,0v-7.714Zm6.268,10.286a6.268,6.268,0,1,1-12.536,0v-6.629l6.268-2.211,6.268,2.211Z" transform="translate(-508 -6586)" fill="rgba(0,0,0,0.85)"/>
      <path id="Path_862" data-name="Path 862" d="M702.375,6737.163a.76.76,0,0,0-.234-.161.772.772,0,0,0-.553,0,.765.765,0,0,0-.234.161.751.751,0,0,0-.157.234.711.711,0,0,0-.056.274.742.742,0,0,0,.056.28.765.765,0,0,0,.157.234l2.641,2.641a.689.689,0,0,0,.222.148.685.685,0,0,0,.523,0,.687.687,0,0,0,.222-.148l4.488-4.494a.673.673,0,0,0,.149-.216.688.688,0,0,0-.149-.749l-.056-.058a.7.7,0,0,0-.222-.148.686.686,0,0,0-.523,0,.7.7,0,0,0-.222.148l-3.95,3.956Z" transform="translate(-510.844 -6590.655)" fill="rgba(0,0,0,0.85)"/>
    </g>
  </g>
</svg>
