<svg xmlns="http://www.w3.org/2000/svg" xmlns:xlink="http://www.w3.org/1999/xlink" width="18" height="18" viewBox="0 0 18 18">
  <defs>
    <clipPath id="clip-path">
      <rect id="Icons" width="18" height="18" fill="none" style="isolation: isolate"/>
    </clipPath>
  </defs>
  <g id="settings" transform="translate(-10 -4)">
    <rect id="Rectangle_182" data-name="Rectangle 182" width="18" height="18" transform="translate(10 4)" fill="none"/>
    <g id="Icons-2" data-name="Icons" transform="translate(10 4)" clip-path="url(#clip-path)" style="isolation: isolate">
      <rect id="Icons-3" data-name="Icons" width="18" height="18" fill="none" style="isolation: isolate"/>
      <g id="ant-design:setting-twotone-2" data-name="ant-design:setting-twotone" clip-path="url(#clip-path)" style="isolation: isolate">
        <rect id="ant-design:setting-twotone-3" data-name="ant-design:setting-twotone" width="18" height="18" fill="none" style="isolation: isolate"/>
        <path id="Vector" d="M13.313,8.288a6.211,6.211,0,0,0,.08-1,6.334,6.334,0,0,0-.065-.893,6.2,6.2,0,0,1,.063.882,6.288,6.288,0,0,1-.082,1.01ZM0,5.265c.012.012.024.024.038.037l1.144.977v0L.024,5.287A.292.292,0,0,1,0,5.265ZM9.4,1.513,9.131.049A.409.409,0,0,0,9.119,0c0,.009.005.019.007.028L9.4,1.513Zm1.49,9.1,1.622.575A6.467,6.467,0,0,0,13.259,9.9L11.953,8.784l.115-.7a4.914,4.914,0,0,0,0-1.611l-.114-.7L13.26,4.658a6.6,6.6,0,0,0-.744-1.286l-1.622.575L10.346,3.5A4.907,4.907,0,0,0,8.96,2.7l-.666-.25L7.982.751A6.6,6.6,0,0,0,6.5.751l-.313,1.7-.662.25a4.888,4.888,0,0,0-1.375.8L3.6,3.951l-1.632-.58a6.465,6.465,0,0,0-.744,1.286L2.541,5.784l-.114.7a4.817,4.817,0,0,0-.065.8,5.032,5.032,0,0,0,.065.8l.114.7L1.221,9.9a6.6,6.6,0,0,0,.744,1.286L3.6,10.6l.549.453a4.891,4.891,0,0,0,1.375.8l.66.253.313,1.7a6.6,6.6,0,0,0,1.485,0l.313-1.695.666-.25a4.885,4.885,0,0,0,1.386-.8Zm-5.116-.8a3.073,3.073,0,1,1,1.473.376A3.074,3.074,0,0,1,5.777,9.808ZM1.625,12.555a.572.572,0,0,0,.306-.017l1.422-.507-.007-.005-1.431.509A.55.55,0,0,1,1.625,12.555ZM13.309,6.266s0,.009,0,.012L14.454,5.3a.562.562,0,0,0,.2-.419.56.56,0,0,1-.2.405Z" transform="translate(1.269 1.669)" fill="rgba(224,224,224,0)" style="isolation: isolate"/>
        <path id="Vector-2" data-name="Vector" d="M7.372.246,7.356.292A7.794,7.794,0,0,1,5.964,2.7l-.031.037a.559.559,0,0,1-.613.166L3.9,2.4A6.116,6.116,0,0,1,2.156,3.406L1.882,4.891a.56.56,0,0,1-.451.449l-.047.009A7.779,7.779,0,0,1,0,5.473H.005a7.819,7.819,0,0,0,1.387-.124L1.44,5.34a.56.56,0,0,0,.451-.449l.274-1.483a6.142,6.142,0,0,0,1.74-1l1.419.5a.559.559,0,0,0,.613-.166L5.969,2.7A7.792,7.792,0,0,0,7.36.3L7.375.253A.57.57,0,0,0,7.4,0,.542.542,0,0,1,7.372.246Z" transform="translate(8.513 11.298)" fill="rgba(224,224,224,0)" style="isolation: isolate"/>
        <path id="Vector-3" data-name="Vector" d="M5.78,1.611a3.076,3.076,0,1,0,.37,1.464A3.074,3.074,0,0,0,5.78,1.611Zm-4.089.08a1.96,1.96,0,1,1-.573,1.384A1.943,1.943,0,0,1,1.691,1.691Z" transform="translate(5.434 5.696)" fill="#282828" style="isolation: isolate"/>
        <path id="Vector-4" data-name="Vector" d="M9.142,15.368a.559.559,0,0,0,.155-.295l.274-1.485a6.117,6.117,0,0,0,1.742-1.006l1.421.5a.559.559,0,0,0,.613-.166l.031-.037a7.794,7.794,0,0,0,1.393-2.41l.016-.045a.542.542,0,0,0,.03-.246.571.571,0,0,0-.192-.365l-1.141-.977,0,0a6.289,6.289,0,0,0,.082-1.01,6.186,6.186,0,0,0-.063-.882c-.005-.038-.012-.077-.017-.115,0,0,0-.009,0-.012l1.144-.979a.56.56,0,0,0,.2-.405.579.579,0,0,0-.033-.21l-.016-.045a7.753,7.753,0,0,0-1.393-2.41l-.031-.037a.561.561,0,0,0-.613-.166l-1.421.5a6.149,6.149,0,0,0-1.74-1.006h0L9.3.581A.168.168,0,0,0,9.291.553.561.561,0,0,0,8.847.132L8.8.123a7.894,7.894,0,0,0-2.778,0L5.974.132a.56.56,0,0,0-.451.449L5.247,2.073a6.148,6.148,0,0,0-1.73,1L2.086,2.568a.559.559,0,0,0-.613.166l-.031.037A7.793,7.793,0,0,0,.049,5.18l-.016.045a.561.561,0,0,0,.138.592c.009.007.016.016.024.023l1.158.989v0a6.221,6.221,0,0,0,0,1.994L.2,9.814a.56.56,0,0,0-.163.615l.016.045a7.774,7.774,0,0,0,1.393,2.41l.031.037a.558.558,0,0,0,.323.187.569.569,0,0,0,.29-.021l1.431-.508.007.005a6.138,6.138,0,0,0,1.723,1l.276,1.492a.56.56,0,0,0,.451.449l.047.009a7.86,7.86,0,0,0,1.389.124h.005A7.787,7.787,0,0,0,8.8,15.531l.047-.009A.56.56,0,0,0,9.142,15.368ZM6.666,14.36l-.313-1.7-.66-.253a4.887,4.887,0,0,1-1.375-.8l-.549-.453-1.632.58a6.6,6.6,0,0,1-.744-1.286L2.712,9.325l-.114-.7a5.031,5.031,0,0,1-.065-.8,4.816,4.816,0,0,1,.065-.8l.114-.7L1.393,5.21a6.466,6.466,0,0,1,.744-1.286l1.632.58.549-.453a4.889,4.889,0,0,1,1.375-.8L6.355,3l.313-1.7a6.6,6.6,0,0,1,1.485,0L8.466,3l.666.25a4.906,4.906,0,0,1,1.386.8l.549.451,1.622-.575a6.6,6.6,0,0,1,.744,1.286L12.126,6.328l.114.7a4.914,4.914,0,0,1,0,1.611l-.115.7,1.305,1.117a6.466,6.466,0,0,1-.744,1.286l-1.622-.575-.549.451a4.882,4.882,0,0,1-1.386.8l-.666.25L8.151,14.36A6.6,6.6,0,0,1,6.666,14.36Z" transform="translate(1.097 1.116)" style="isolation: isolate"/>
      </g>
    </g>
  </g>
</svg>
