<svg xmlns="http://www.w3.org/2000/svg" width="18" height="18" viewBox="0 0 18 18">
  <g id="shopping" transform="translate(1.739 0.176)">
    <rect id="Rectangle_558" data-name="Rectangle 558" width="18" height="18" transform="translate(-1.739 -0.176)" fill="none"/>
    <path id="Path_53" data-name="Path 53" d="M111.23,23.24a2,2,0,0,0-1.992-1.992h-1.217v-.411a3.665,3.665,0,0,0-7.33,0v.411H99.474a1.991,1.991,0,0,0-1.992,1.978L97.095,33A2,2,0,0,0,99.087,35h10.537a2,2,0,0,0,1.992-2.007Zm-9.809-2.4a2.935,2.935,0,0,1,5.87,0v.411h-5.87Zm8.2,13.429H99.087a1.261,1.261,0,0,1-1.262-1.248l.387-9.778a1.264,1.264,0,0,1,1.262-1.262h9.763a1.268,1.268,0,0,1,1.263,1.277L110.886,33A1.263,1.263,0,0,1,109.624,34.266Z" transform="translate(-97.095 -17.172)"/>
    <path id="Path_54" data-name="Path 54" d="M292.512,530.291a3.119,3.119,0,0,1-3.115-3.115h-.73a3.846,3.846,0,1,0,7.691,0h-.73A3.119,3.119,0,0,1,292.512,530.291Z" transform="translate(-285.251 -518.084)"/>
  </g>
</svg>
