<svg xmlns="http://www.w3.org/2000/svg" width="18" height="18.047" viewBox="0 0 18 18.047">
  <g id="support" transform="translate(-145 -44.953)">
    <rect id="Rectangle_552" data-name="Rectangle 552" width="18" height="18" transform="translate(145 45)" fill="#fff"/>
    <path id="Path_574" data-name="Path 574" d="M245.57,4535.57a9,9,0,0,0-9,8.995v8.441a.56.56,0,0,0,.562.559h4.312a1.5,1.5,0,0,0,1.5-1.5v-4.876a1.5,1.5,0,0,0-1.5-1.5h-3.187v-1.125a7.312,7.312,0,0,1,14.624,0v1.125H249.7a1.5,1.5,0,0,0-1.5,1.5v4.876a1.5,1.5,0,0,0,1.5,1.5h4.312a.56.56,0,0,0,.562-.559v-8.441A9,9,0,0,0,245.57,4535.57Zm-4.312,11.812v4.5h-3v-4.5Zm11.624,4.5h-3v-4.5h3Z" transform="translate(-91.571 -4490.617)" fill="rgba(0,0,0,0.85)"/>
  </g>
</svg>
