<svg id="Tick_iocn" data-name="Tick iocn" xmlns="http://www.w3.org/2000/svg" width="18" height="18" viewBox="0 0 18 18">
  <path id="Path_56" data-name="Path 56" d="M12.757,5.805h-.942a.64.64,0,0,0-.52.267L8.136,10.452,6.706,8.467a.642.642,0,0,0-.52-.267H5.243a.161.161,0,0,0-.131.255l2.5,3.471a.639.639,0,0,0,1.039,0L12.885,6.06A.16.16,0,0,0,12.757,5.805Z"/>
  <path id="Path_57" data-name="Path 57" d="M9,0a9,9,0,1,0,9,9A9,9,0,0,0,9,0ZM9,16.473A7.473,7.473,0,1,1,16.473,9,7.475,7.475,0,0,1,9,16.473Z"/>
</svg>
