<svg xmlns="http://www.w3.org/2000/svg" width="18" height="18" viewBox="0 0 18 18">
  <g id="tick" transform="translate(-739 -46)">
    <rect id="Rectangle_556" data-name="Rectangle 556" width="18" height="18" transform="translate(739 46)" fill="none"/>
    <path id="Path_984" data-name="Path 984" d="M861.431,1458.06H859.89a.7.7,0,0,0-.554.269l-9.094,11.523-4.361-5.528a.751.751,0,0,0-.246-.2.742.742,0,0,0-.307-.071h-1.542a.177.177,0,0,0-.139.286l6.042,7.653a.709.709,0,0,0,1.11,0l10.773-13.648A.176.176,0,0,0,861.431,1458.06Z" transform="translate(-104.608 -1410.16)"/>
  </g>
</svg>
