<svg xmlns="http://www.w3.org/2000/svg" width="18.219" height="18" viewBox="0 0 18.219 18">
  <g id="transist" transform="translate(1.366 0.309)" style="isolation: isolate">
    <rect id="Rectangle_188" data-name="Rectangle 188" width="18" height="18" transform="translate(-1.256 -0.309)" fill="#fff"/>
    <g id="Group_421" data-name="Group 421" transform="translate(4 0.9)">
      <path id="Vector" d="M3.96,1.981A1.98,1.98,0,1,0,1.981,3.96,1.982,1.982,0,0,0,3.96,1.981Zm-.519,0A1.461,1.461,0,1,1,1.981.517,1.462,1.462,0,0,1,3.441,1.981Z" transform="translate(1.764 2.211)" style="isolation: isolate"/>
      <path id="Vector-2" data-name="Vector" d="M0,14.455a.24.24,0,0,0,.245.236H2.712a1.816,1.816,0,0,0,3.579,0h6.736a1.816,1.816,0,0,0,3.579,0h1.147A.24.24,0,0,0,18,14.455c0-3.66,0-3.624,0-3.662-.039-.1-.725-1.445-2.16-4.273a.246.246,0,0,0-.221-.132H12.127V5.366a4.522,4.522,0,0,0,.5-1.868A3.568,3.568,0,0,0,9,0,3.569,3.569,0,0,0,5.373,3.5a4.017,4.017,0,0,0,.311,1.433H.245A.24.24,0,0,0,0,5.166Zm3.183,0A1.319,1.319,0,1,1,4.5,15.729,1.3,1.3,0,0,1,3.183,14.455Zm10.317,0a1.319,1.319,0,1,1,1.319,1.274A1.3,1.3,0,0,1,13.5,14.455Zm3.111-.236A1.808,1.808,0,0,0,14.4,12.76a1.774,1.774,0,0,0-1.376,1.459h-.9V11.076H17.51v3.143Zm.751-3.614H12.129V6.86h3.334ZM12.135,3.5c0,1.67-1.949,4.117-3.134,5.372C7.815,7.614,5.866,5.192,5.866,3.5A3.07,3.07,0,0,1,9,.471,3.085,3.085,0,0,1,12.135,3.5ZM5.9,5.429a16.576,16.576,0,0,0,2.92,3.951.255.255,0,0,0,.381-.027,18.564,18.564,0,0,0,2.417-3.06c.025-.039.013-.551.015,7.926H6.293A1.764,1.764,0,0,0,5.1,12.812a1.813,1.813,0,0,0-2.389,1.407H.491V5.4C5.9,5.4,5.885,5.386,5.9,5.429Z" transform="translate(-5.256 -0.309)" stroke="#282828" stroke-width="0.22" style="isolation: isolate"/>
    </g>
  </g>
</svg>
