<svg xmlns="http://www.w3.org/2000/svg" width="27.251" height="20.333" viewBox="0 0 27.251 20.333">
  <g id="uber" transform="translate(-885.375 14829.167)">
    <path id="Path_1103" data-name="Path 1103" d="M194.32.25h6.424V1.822h-4.689V4.054h4.559V5.573h-4.559v2.27h4.689V9.414H194.32Zm24.167,9.329c1.97,0,3.079-.943,3.079-2.238,0-.923-.657-1.611-2.033-1.91l-1.454-.3c-.844-.157-1.11-.314-1.11-.629,0-.407.407-.657,1.157-.657.813,0,1.415.218,1.572.97h1.7c-.093-1.415-1.11-2.348-3.172-2.348-1.783,0-3.034.736-3.034,2.161,0,.986.689,1.627,2.174,1.94L219,6.946c.641.126.813.3.813.564,0,.423-.484.689-1.267.689-.984,0-1.547-.218-1.765-.97h-1.713c.25,1.412,1.3,2.35,3.424,2.35Zm-3.919-.171h-1.844a1.62,1.62,0,0,1-1.8-1.629V4.18h-1.3V2.646h1.3V.72h1.713V2.646h1.922V4.18h-1.922V7.341c0,.36.25.533.641.533h1.281ZM207.18,2.649v.61a3.326,3.326,0,0,0-2.158-.786,3.554,3.554,0,1,0,0,7.107,3.317,3.317,0,0,0,2.158-.787V9.4h1.709V2.646ZM205.163,8.1a2.067,2.067,0,1,1,2.043-2.066,2.044,2.044,0,0,1-2.047,2.062Z" transform="translate(691.055 -14818.414)" fill="#05c167"/>
    <path id="Path_1104" data-name="Path 1104" d="M26.892,3.914a1.519,1.519,0,0,0-1.47,1.706V9.408H24.11V2.74h1.3v.814a1.759,1.759,0,0,1,1.562-.861h.472V3.914ZM23.2,6.074A3.316,3.316,0,0,0,19.874,2.6a3.432,3.432,0,0,0-3.408,3.476A3.444,3.444,0,0,0,20,9.564a3.485,3.485,0,0,0,2.877-1.424l-.953-.7A2.323,2.323,0,0,1,20,8.411,2.235,2.235,0,0,1,17.8,6.5h5.409Zm-5.378-.611a2.1,2.1,0,0,1,2.032-1.706,2.067,2.067,0,0,1,2.017,1.706ZM12.308,2.6a3.32,3.32,0,0,0-2.358.986V.25H8.638V9.408h1.3V8.562a3.372,3.372,0,0,0,2.377,1,3.483,3.483,0,1,0,0-6.966Zm-.094,5.793a.952.952,0,1,0,0-.006ZM3.8,8.328A2.261,2.261,0,0,0,6.055,5.9V.25h1.36V9.408H6.071V8.542A3.339,3.339,0,0,1,3.648,9.559,3.389,3.389,0,0,1,.19,5.975V.25H1.575V5.909A2.222,2.222,0,0,0,3.8,8.328Z" transform="translate(885.185 -14829.417)"/>
  </g>
</svg>
