<svg xmlns="http://www.w3.org/2000/svg" width="18" height="18" viewBox="0 0 18 18">
  <g id="upload" transform="translate(-145 -45)">
    <rect id="Rectangle_552" data-name="Rectangle 552" width="18" height="18" transform="translate(145 45)" fill="#fff"/>
    <path id="Path_980" data-name="Path 980" d="M705.717,4257.81a.149.149,0,0,0-.057-.045.176.176,0,0,0-.141,0,.147.147,0,0,0-.057.045l-2.25,2.85a.143.143,0,0,0-.033.081.171.171,0,0,0,.015.089.21.21,0,0,0,.059.065.131.131,0,0,0,.086.02h1.484v4.87a.163.163,0,0,0,.16.165h1.206a.163.163,0,0,0,.161-.165v-4.865h1.489a.161.161,0,0,0,.127-.26Z" transform="translate(-551.59 -4204.875)" fill="rgba(0,0,0,0.85)"/>
    <path id="Path_981" data-name="Path 981" d="M705.015,4250a6.427,6.427,0,0,0-12.021,0,4.019,4.019,0,0,0,1.022,7.9h.806a.163.163,0,0,0,.161-.16v-1.21a.162.162,0,0,0-.161-.16h-.806a2.492,2.492,0,0,1-1.963-4.025,2.514,2.514,0,0,1,1.328-.875l.761-.2.279-.735a4.9,4.9,0,0,1,8.448-1.275,4.924,4.924,0,0,1,.717,1.275l.277.729.759.2a2.493,2.493,0,0,1,1.121,4.171,2.444,2.444,0,0,1-.807.545,2.4,2.4,0,0,1-.953.185h-.806a.162.162,0,0,0-.16.16v1.21a.163.163,0,0,0,.16.16h.806a4.02,4.02,0,0,0,1.031-7.9Z" transform="translate(-545 -4198.926)" fill="rgba(0,0,0,0.85)"/>
  </g>
</svg>
