<svg xmlns="http://www.w3.org/2000/svg" width="18" height="18" viewBox="0 0 18 18">
  <g id="van" transform="translate(-9 1.52)">
    <rect id="Rectangle_182" data-name="Rectangle 182" width="18" height="18" transform="translate(9 -1.52)" fill="none"/>
    <g id="Group_67" data-name="Group 67" transform="translate(9 2.004)">
      <path id="Vector" d="M17.566,5.816,14.56,2.926h-2.5V0H0V8.594H.23v2.442H1.564a2.089,2.089,0,0,0,2.1,1.682,2.089,2.089,0,0,0,2.1-1.682H12a2.153,2.153,0,0,0,4.2,0h1.468V5.91Zm-.553,1.151h-3V5.034h1.837l1.164,1.119ZM7.981,2.927H3.989V.605H7.981ZM3.341.605V3.532H8.63V.605h2.785V7.99H.649V.605Zm7.84,7.989v1.837H5.766a2.089,2.089,0,0,0-2.1-1.682,2.089,2.089,0,0,0-2.1,1.682H.879V8.595Zm-9,2.139a1.434,1.434,0,0,1,1.48-1.38,1.434,1.434,0,0,1,1.48,1.38,1.434,1.434,0,0,1-1.48,1.38A1.434,1.434,0,0,1,2.185,10.734Zm10.431,0a1.483,1.483,0,1,1,1.48,1.38A1.434,1.434,0,0,1,12.616,10.734ZM14.1,8.75a2.089,2.089,0,0,0-2.1,1.682h-.166V8.595h.234V3.531h2.223l.934.9H13.362V7.572h3.653v2.86H16.2A2.089,2.089,0,0,0,14.1,8.75Z" style="isolation: isolate"/>
      <path id="Vector-2" data-name="Vector" d="M2.288,0V.6H0V0Z" transform="translate(8.414 6.507)" style="isolation: isolate"/>
    </g>
  </g>
</svg>
