<svg xmlns="http://www.w3.org/2000/svg" width="18.002" height="18.002" viewBox="0 0 18.002 18.002">
  <g id="waiting" transform="translate(1.258 0.309)" style="isolation: isolate">
    <rect id="Rectangle_188" data-name="Rectangle 188" width="18" height="18" transform="translate(-1.256 -0.309)" fill="#fff"/>
    <path id="Vector" d="M1.126,4.742,3.468,7.136l-.811.829L0,5.249V0H1.126Z" transform="translate(6.843 4.191)" style="isolation: isolate"/>
    <path id="Vector-2" data-name="Vector" d="M8.827,18A8.9,8.9,0,0,1,0,9.024,8.942,8.942,0,0,1,8.827,0a8.692,8.692,0,0,1,7.206,3.867l1.441-.691a.358.358,0,0,1,.5.46l-.991,2.808a.362.362,0,0,1-.5.23L13.736,5.617a.382.382,0,0,1-.045-.691L15,4.328a7.731,7.731,0,0,0-6.17-3.177,7.814,7.814,0,0,0-7.7,7.873,7.774,7.774,0,0,0,7.7,7.827A7.667,7.667,0,0,0,15.538,12.8l.991.553A8.694,8.694,0,0,1,8.827,18Z" transform="translate(-1.258 -0.309)" style="isolation: isolate"/>
  </g>
</svg>
