<svg xmlns="http://www.w3.org/2000/svg" width="18.006" height="18" viewBox="0 0 18.006 18">
  <g id="warning" transform="translate(-508 -46)">
    <rect id="Rectangle_556" data-name="Rectangle 556" width="18" height="18" transform="translate(508 46)" fill="none"/>
    <path id="Path_983" data-name="Path 983" d="M546.038,1564.308a.962.962,0,0,0,.283.68.959.959,0,0,0,1.364,0,.961.961,0,0,0,.283-.68.982.982,0,0,0-.283-.685.971.971,0,0,0-1.364,0A.982.982,0,0,0,546.038,1564.308Zm.322-6.112v3.7a.163.163,0,0,0,.161.16h.964a.163.163,0,0,0,.161-.16v-3.7a.163.163,0,0,0-.161-.16h-.964A.163.163,0,0,0,546.36,1558.2Zm9.559,8.842-8.359-14.469a.644.644,0,0,0-1.113,0l-8.359,14.469a.643.643,0,0,0,.557.965h16.719A.643.643,0,0,0,555.919,1567.039Zm-15.744-.56L547,1554.661l6.828,11.818Z" transform="translate(-30 -1505.25)" fill="rgba(0,0,0,0.85)"/>
  </g>
</svg>
