<svg xmlns="http://www.w3.org/2000/svg" viewBox="0 0 24 24" width="100" height="100">
  <path fill="#61dafb" d="M12 2C6.48 2 2 6.48 2 12s4.48 10 10 10 10-4.48 10-10S17.52 2 12 2zm-1 16.93c-3.95-.49-7-3.85-7-7.93s3.05-7.44 7-7.93V5.1c-4.25.49-7.59 3.85-8.1 8.1h2.05c.47-3.06 2.93-5.52 6-5.99V4.07c-2.92.49-5.24 2.81-5.73 5.73h2.05c.46-2.86 2.57-5.17 5.29-5.67V6.1c-2.36.45-4.21 2.3-4.67 4.67h2.03c.43-1.63 1.67-2.86 3.3-3.3v2.03c1.37.47 2.49 1.59 2.96 2.96h2.03c-.49-2.39-2.31-4.21-4.67-4.67v2.03c1.72.5 3.05 2.82 3.3 5.67h2.03c-.49-2.91-2.81-5.23-5.73-5.73v2.05c3.06.47 5.52 2.93 5.99 6h2.05c-.49-4.25-3.85-7.59-8.1-8.1v2.05c3.95.49 7 3.85 7 7.93s-3.05 7.44-7 7.93z"/>
</svg>
